<mxfile host="app.diagrams.net" modified="2024-04-16T03:06:21.596Z" agent="Mozilla/5.0 (Windows NT 10.0; Win64; x64) AppleWebKit/537.36 (KHTML, like Gecko) Chrome/123.0.0.0 Safari/537.36 Edg/123.0.0.0" version="24.2.5" etag="Lz50jHArTCxCXItZ-alC" type="github">
  <diagram name="第 1 页" id="UzVM-HZsmOHKbgVcmjqN">
    <mxGraphModel>
      <root>
        <mxCell id="0" />
        <mxCell id="1" parent="0" />
        <mxCell id="2" value="DEEP" style="whiteSpace=wrap;strokeWidth=2;" vertex="1" parent="1">
          <mxGeometry x="5" width="51" height="34" as="geometry" />
        </mxCell>
        <mxCell id="3" value="LEARN" style="whiteSpace=wrap;strokeWidth=2;" vertex="1" parent="1">
          <mxGeometry y="84" width="61" height="34" as="geometry" />
        </mxCell>
        <mxCell id="4" value="" style="curved=1;startArrow=none;endArrow=block;exitX=0.4965721205169079;exitY=0.9936515583711512;entryX=0.4971340679731525;entryY=-0.006348441628848805;" edge="1" parent="1" source="2" target="3">
          <mxGeometry relative="1" as="geometry">
            <Array as="points" />
          </mxGeometry>
        </mxCell>
      </root>
    </mxGraphModel>
  </diagram>
</mxfile>
